<mxfile host="Electron" modified="2024-09-21T14:34:29.127Z" agent="Mozilla/5.0 (Windows NT 10.0; Win64; x64) AppleWebKit/537.36 (KHTML, like Gecko) draw.io/24.4.0 Chrome/120.0.6099.109 Electron/28.1.0 Safari/537.36" etag="pNzSHBMHjllgmKcv3aql" version="24.4.0" type="device">
  <diagram name="第 1 页" id="ANVgfKC1L0qm7wUfjmin">
    <mxGraphModel dx="1036" dy="614" grid="1" gridSize="10" guides="1" tooltips="1" connect="1" arrows="1" fold="1" page="1" pageScale="1" pageWidth="827" pageHeight="1169" math="0" shadow="0">
      <root>
        <mxCell id="0" />
        <mxCell id="1" parent="0" />
        <mxCell id="i66tQGQC1Ocsnc9yD7HQ-2" value="" style="rounded=0;whiteSpace=wrap;html=1;dashed=1;fillColor=#f5f5f5;strokeColor=#666666;fontColor=#333333;fontFamily=Times New Roman;fontSize=15;" parent="1" vertex="1">
          <mxGeometry x="125" y="180" width="440" height="240" as="geometry" />
        </mxCell>
        <mxCell id="i66tQGQC1Ocsnc9yD7HQ-4" style="edgeStyle=orthogonalEdgeStyle;rounded=0;orthogonalLoop=1;jettySize=auto;html=1;entryX=0.5;entryY=0;entryDx=0;entryDy=0;fontFamily=Times New Roman;fontSize=15;" parent="1" source="i66tQGQC1Ocsnc9yD7HQ-1" target="i66tQGQC1Ocsnc9yD7HQ-3" edge="1">
          <mxGeometry relative="1" as="geometry" />
        </mxCell>
        <mxCell id="i66tQGQC1Ocsnc9yD7HQ-1" value="TCP/IP" style="rounded=0;whiteSpace=wrap;html=1;fillColor=#d5e8d4;strokeColor=#82b366;fontFamily=Times New Roman;fontSize=15;" parent="1" vertex="1">
          <mxGeometry x="280" y="120" width="120" height="40" as="geometry" />
        </mxCell>
        <mxCell id="i66tQGQC1Ocsnc9yD7HQ-14" style="edgeStyle=orthogonalEdgeStyle;rounded=0;orthogonalLoop=1;jettySize=auto;html=1;entryX=0.5;entryY=0;entryDx=0;entryDy=0;fontFamily=Times New Roman;fontSize=15;" parent="1" source="i66tQGQC1Ocsnc9yD7HQ-3" target="i66tQGQC1Ocsnc9yD7HQ-5" edge="1">
          <mxGeometry relative="1" as="geometry" />
        </mxCell>
        <mxCell id="i66tQGQC1Ocsnc9yD7HQ-3" value="packet reordering and&amp;nbsp;&lt;div&gt;de-packaging&lt;/div&gt;" style="rounded=0;whiteSpace=wrap;html=1;fillColor=#ffe6cc;strokeColor=#d79b00;fontFamily=Times New Roman;fontSize=15;" parent="1" vertex="1">
          <mxGeometry x="240" y="210" width="200" height="40" as="geometry" />
        </mxCell>
        <mxCell id="i66tQGQC1Ocsnc9yD7HQ-13" style="edgeStyle=orthogonalEdgeStyle;rounded=0;orthogonalLoop=1;jettySize=auto;html=1;entryX=0.5;entryY=0;entryDx=0;entryDy=0;fontFamily=Times New Roman;fontSize=15;" parent="1" source="i66tQGQC1Ocsnc9yD7HQ-5" target="i66tQGQC1Ocsnc9yD7HQ-12" edge="1">
          <mxGeometry relative="1" as="geometry" />
        </mxCell>
        <mxCell id="LYWrsSljy56XmS4vqk3L-4" style="edgeStyle=orthogonalEdgeStyle;rounded=0;orthogonalLoop=1;jettySize=auto;html=1;entryX=1;entryY=0.5;entryDx=0;entryDy=0;" edge="1" parent="1" source="i66tQGQC1Ocsnc9yD7HQ-5" target="i66tQGQC1Ocsnc9yD7HQ-6">
          <mxGeometry relative="1" as="geometry" />
        </mxCell>
        <mxCell id="LYWrsSljy56XmS4vqk3L-5" style="edgeStyle=orthogonalEdgeStyle;rounded=0;orthogonalLoop=1;jettySize=auto;html=1;entryX=0;entryY=0.5;entryDx=0;entryDy=0;" edge="1" parent="1" source="i66tQGQC1Ocsnc9yD7HQ-5" target="i66tQGQC1Ocsnc9yD7HQ-7">
          <mxGeometry relative="1" as="geometry" />
        </mxCell>
        <mxCell id="i66tQGQC1Ocsnc9yD7HQ-5" value="packet interception" style="rounded=0;whiteSpace=wrap;html=1;fillColor=#ffe6cc;strokeColor=#d79b00;fontFamily=Times New Roman;fontSize=15;" parent="1" vertex="1">
          <mxGeometry x="280" y="280" width="120" height="60" as="geometry" />
        </mxCell>
        <mxCell id="i66tQGQC1Ocsnc9yD7HQ-6" value="traffic monitoring" style="rounded=0;whiteSpace=wrap;html=1;fillColor=#ffe6cc;strokeColor=#d79b00;fontFamily=Times New Roman;fontSize=15;" parent="1" vertex="1">
          <mxGeometry x="140" y="270" width="80" height="80" as="geometry" />
        </mxCell>
        <mxCell id="i66tQGQC1Ocsnc9yD7HQ-7" value="packet loss&lt;div&gt;monitoring&lt;/div&gt;" style="rounded=0;whiteSpace=wrap;html=1;fillColor=#ffe6cc;strokeColor=#d79b00;fontFamily=Times New Roman;fontSize=15;" parent="1" vertex="1">
          <mxGeometry x="477" y="270" width="80" height="80" as="geometry" />
        </mxCell>
        <mxCell id="i66tQGQC1Ocsnc9yD7HQ-12" value="TCP proxy" style="rounded=0;whiteSpace=wrap;html=1;fillColor=#ffe6cc;strokeColor=#d79b00;fontFamily=Times New Roman;fontSize=15;" parent="1" vertex="1">
          <mxGeometry x="280" y="360" width="120" height="40" as="geometry" />
        </mxCell>
        <mxCell id="LYWrsSljy56XmS4vqk3L-1" style="edgeStyle=orthogonalEdgeStyle;rounded=0;orthogonalLoop=1;jettySize=auto;html=1;entryX=0.5;entryY=1;entryDx=0;entryDy=0;" edge="1" parent="1" source="i66tQGQC1Ocsnc9yD7HQ-15" target="i66tQGQC1Ocsnc9yD7HQ-12">
          <mxGeometry relative="1" as="geometry" />
        </mxCell>
        <mxCell id="i66tQGQC1Ocsnc9yD7HQ-15" value="802.11 MAC" style="rounded=0;whiteSpace=wrap;html=1;fillColor=#d5e8d4;strokeColor=#82b366;fontFamily=Times New Roman;fontSize=15;" parent="1" vertex="1">
          <mxGeometry x="155" y="460" width="370" height="40" as="geometry" />
        </mxCell>
        <mxCell id="LYWrsSljy56XmS4vqk3L-2" style="edgeStyle=orthogonalEdgeStyle;rounded=0;orthogonalLoop=1;jettySize=auto;html=1;entryX=0.068;entryY=0.06;entryDx=0;entryDy=0;entryPerimeter=0;" edge="1" parent="1" source="i66tQGQC1Ocsnc9yD7HQ-6" target="i66tQGQC1Ocsnc9yD7HQ-15">
          <mxGeometry relative="1" as="geometry" />
        </mxCell>
        <mxCell id="LYWrsSljy56XmS4vqk3L-3" style="edgeStyle=orthogonalEdgeStyle;rounded=0;orthogonalLoop=1;jettySize=auto;html=1;entryX=0.978;entryY=0.06;entryDx=0;entryDy=0;entryPerimeter=0;" edge="1" parent="1" source="i66tQGQC1Ocsnc9yD7HQ-7" target="i66tQGQC1Ocsnc9yD7HQ-15">
          <mxGeometry relative="1" as="geometry" />
        </mxCell>
      </root>
    </mxGraphModel>
  </diagram>
</mxfile>
